PathFileType	4	(X/Y/Z)	Patient4_TMGait_0pt7_01_left_44.trc.trc
DataRate	CameraRate	NumFrames	NumMarkers	Units	OrigDataRate	OrigDataStartFrame	OrigNumFrames
83.333333333333	83.333333333333	4	33	mm	83.333333333333	89	       141
Frame#	Time	Sacral			L.Shoulder			Chest			R.Shoulder			Neck			R.ASIS			L.ASIS			R.Thigh.Superior			R.Thigh.Lateral			R.Thigh.Inferior			R.Patella			L.Thigh.Superior			L.Thigh.Lateral			L.Thigh.Inferior			L.Patella			L.Shank.Superior			L.Shank.Lateral			L.Shank.Inferior			R.Shank.Superior			R.Shank.Lateral			R.Shank.Inferior			R.Heel			R.Midfoot.Superior			R.Midfoot.Lateral			R.Toe			L.Heel			L.Midfoot.Lateral			L.Midfoot.Superior			L.Toe			L.Elbow			L.Wrist			R.Elbow			R.Wrist			
		X1	Y1	Z1	X2	Y2	Z2	X3	Y3	Z3	X4	Y4	Z4	X5	Y5	Z5	X6	Y6	Z6	X7	Y7	Z7	X8	Y8	Z8	X9	Y9	Z9	X10	Y10	Z10	X11	Y11	Z11	X12	Y12	Z12	X13	Y13	Z13	X14	Y14	Z14	X15	Y15	Z15	X16	Y16	Z16	X17	Y17	Z17	X18	Y18	Z18	X19	Y19	Z19	X20	Y20	Z20	X21	Y21	Z21	X22	Y22	Z22	X23	Y23	Z23	X24	Y24	Z24	X25	Y25	Z25	X26	Y26	Z26	X27	Y27	Z27	X28	Y28	Z28	X29	Y29	Z29	X30	Y30	Z30	X31	Y31	Z31	X32	Y32	Z32	X33	Y33	Z33	

89	52.046000000000	887.271358927701	1010.387310693520	512.685737949263	1107.980686981803	1415.583088405741	319.103901460011	1199.140106750778	1341.794264292748	486.755948363529	1119.078693793866	1434.754311319295	652.028772778460	1116.590927282847	1482.715899830310	470.415496684892	1107.674967091708	935.722360563056	636.586497933046	1101.802020155113	954.944524450903	362.060802194432	1166.142365611779	748.281608641396	615.067087044897	1093.323695673264	636.397420907445	675.046744797753	1177.601739594045	590.064971894312	597.939923860800	1189.138615018587	503.869462084185	607.349935702127	1126.628980320195	735.910726943218	375.558704481127	1029.060107664267	632.018542247414	304.620344827879	1108.284381865939	537.322549256904	357.489243059221	1093.540702939716	453.646555229762	350.681052417406	1022.597003458618	402.200205206286	342.973885641889	880.422147718835	366.410734194777	293.275928312048	862.888755847580	235.964656143084	344.045315524989	1171.560285957984	413.941277190251	617.680093665837	1111.314999030515	304.794099464963	680.857876227016	1166.137546681007	213.255747134352	622.708382744075	1048.765620713885	43.967761370652	594.304864799551	1219.603813798917	98.618052969311	631.573746989996	1131.192053324435	37.373782153357	669.542731499647	1339.778058819723	45.095688126121	660.665448168979	671.405502430782	177.898023719828	381.513482824280	724.810417739708	126.083833086766	302.841861740112	829.698488496628	130.135210278981	322.116511865432	901.604414044141	29.834605209302	299.527050131909	1050.746312829838	1067.227632642151	212.430680644256	1223.482363135288	871.125597221650	225.986657499070	1008.536394313124	1114.662480218308	791.837728314235	1056.295614302925	856.040325323102	795.575947452508	
90	52.058000000000	887.428973885675	1012.540753671372	516.002721684974	1108.773473123829	1416.390921344357	321.634149104061	1200.741966284820	1342.503916063069	488.794988853503	1122.175883566408	1435.968525202855	654.502384821018	1118.371965275692	1483.731094489326	472.916178434582	1107.517603348915	936.844746593625	639.609440801635	1101.267462187885	955.490308510572	365.232009958217	1162.534813728154	747.286292475086	619.480729737844	1087.028892781760	636.870676997076	678.136894309543	1170.679152120193	589.327224404356	601.283587506093	1180.849661072070	503.556781206087	610.102278064128	1132.531422834020	739.373934434322	379.151699254222	1039.965057374078	632.646759960630	307.168670781489	1121.568592755976	539.857314065842	361.196685900236	1108.006545757558	454.921332710531	353.866457856298	1035.325851623690	403.619928757712	345.689715004697	892.292469979999	372.836186666099	294.920464744500	869.998179731725	243.065880794605	345.325730206060	1163.304383091702	413.937405085426	619.934936261910	1102.644592495775	304.597929956699	682.346909345735	1157.742126697852	213.298223933220	623.933218344145	1040.392910097417	44.018231561644	594.459610131815	1211.203536003364	98.575989056213	631.940770589438	1122.769498666345	37.356202209605	669.696251173355	1331.409388896907	44.681873217491	661.024438499872	676.753256237774	194.711231448929	381.510960365612	727.609294119540	139.854901750842	302.994530201079	832.704148562738	137.403367601774	322.967208668437	897.859529395188	29.918808032015	300.247849850146	1047.236160529589	1067.804442850499	217.625991724745	1207.136127067408	860.253377958006	228.330953753407	1017.561581439192	1114.468604037459	796.802240402484	1076.338853824886	858.184574001380	798.674744579022	
91	52.070000000000	887.332959878138	1014.503846803335	518.997560824743	1109.375862729287	1416.935995246777	323.914346296080	1202.161553799753	1342.944701547333	490.589855972023	1125.186549973029	1436.963494705636	656.778292347218	1120.035447851150	1484.531548792442	475.140021015955	1107.026148915230	937.805542768695	642.496667747280	1100.655089467953	955.882507708528	368.233366951703	1158.733307076045	746.374455411662	623.618349776967	1080.681497358674	637.373980916026	681.073824652495	1163.650858129767	588.637501964043	604.491218446859	1172.470650452027	503.314746539533	612.789227999915	1138.200461823660	743.093038088194	382.886849223503	1050.859595435505	633.694732564855	309.764257773935	1134.679853042343	542.981780450058	365.150939547767	1122.526936186575	456.821418204791	357.396290121172	1048.356128774832	405.478280718518	348.649262412356	904.746863160532	379.301125269867	296.693408024914	877.973088469526	250.343258310864	346.859050105048	1154.989423915108	413.975720533547	622.092128816166	1093.932218119203	304.449178544222	683.783801973172	1149.349374860237	213.378061652904	625.132122402808	1032.003865775422	44.114797175694	594.615475999422	1202.815385442225	98.477428188011	632.300350191629	1114.340690705666	37.332349262435	669.837518290866	1323.042843884938	44.197732227827	661.365038918699	683.409116508250	210.828589838879	381.586467623088	732.026407258796	153.387808724837	303.292794899491	837.003647936602	145.164960331404	324.133798942931	895.943156389246	30.971194050090	301.305976452919	1043.724653203819	1068.179273212437	222.547579151284	1189.986960371165	850.179145782930	230.666122808193	1026.735777630594	1114.252535683980	801.729413084982	1096.695254621438	860.882363164853	801.866552223360	
92	52.082000000000	886.988579831352	1016.283338579345	521.671643452901	1109.847572553712	1417.249632369141	325.941713878096	1203.398000172964	1343.134193039449	492.161809863456	1128.064990823149	1437.761549706827	658.855619149854	1121.606688755309	1485.133384581057	477.080070559870	1106.217306743688	938.634916237277	645.273494180387	1099.983418232569	956.160652661149	371.080378767047	1154.852067960599	745.593224474578	627.388235537040	1074.441964595619	637.915972052396	683.806740209284	1156.694338740814	588.022730545282	607.495572844918	1164.195006765201	503.140888433624	615.345607646933	1143.479255820985	747.048571937581	386.800936028075	1061.539079645125	635.214700842267	312.398858213414	1147.431255665927	546.725288668836	369.263107444833	1136.935049976346	459.391237047240	361.131258901154	1061.529545656127	407.816092968791	351.756298208144	917.579134137714	385.720085952837	298.590044856449	886.756713841493	257.637585978384	348.602122287963	1146.759999119782	414.057298105509	624.108684479174	1085.294936514954	304.375415247839	685.141988641222	1141.018533807963	213.495117136747	626.270146676959	1023.605476465563	44.258208566328	594.770449729859	1194.454086994640	98.355522780413	632.658059505521	1105.911385586222	37.318965796008	669.963204933262	1314.675251792252	43.688272875118	661.690572270287	691.231057354305	225.770948148152	381.756334332963	738.033335960373	166.219335897427	303.764829285964	842.654243138827	153.171985732762	325.586716127754	896.191326020736	33.116822278531	302.747181009779	1040.148905109540	1068.409933182907	227.176389010297	1172.151028217428	841.081267487975	233.002342729566	1036.114067437607	1113.992370364323	806.542277935783	1117.324216946466	864.140848324077	805.060151795736	
